<svg width="46" height="52" viewBox="0 0 46 52" fill="none" xmlns="http://www.w3.org/2000/svg">
<path d="M43.0267 11.12L25.6934 0.933359C24.0134 -0.0533073 21.9599 -0.0533073 20.2799 0.933359L2.94661 11.12C1.31995 12.08 0.306641 13.84 0.306641 15.7067V36.2667C0.306641 38.16 1.31995 39.8934 2.94661 40.8534L20.2799 51.04C21.9599 52.0267 24.0134 52.0267 25.6934 51.04L43.0267 40.8534C44.6534 39.8934 45.6667 38.1334 45.6667 36.2667V15.7067C45.6667 13.84 44.6534 12.08 43.0267 11.12ZM37.3734 35.7067L24.04 43.7067C23.72 43.8933 23.3733 44 23 44C22.6267 44 22.28 43.8933 21.96 43.7067L8.62663 35.7067C7.66663 35.1467 7.37327 33.92 7.93327 32.96C8.49327 32 9.72001 31.7067 10.68 32.2667L22.9733 39.6533L32.4134 33.9734L27.4533 30.9867L25.7201 32.72C25.3201 33.12 24.8133 33.3067 24.3066 33.3067C23.8 33.3067 23.2934 33.12 22.8934 32.72C22.1201 31.9467 22.1201 30.6667 22.8934 29.8934L23.9067 28.88L19.1066 26L17.7201 27.3867C17.3201 27.7867 16.8133 27.9734 16.3066 27.9734C15.8 27.9734 15.2934 27.7867 14.8934 27.3867C14.1201 26.6134 14.1201 25.3334 14.8934 24.56L15.5866 23.8667L8.62663 19.68C8.01329 19.3067 7.66667 18.6667 7.66667 17.9734C7.66667 17.28 8.03996 16.6134 8.62663 16.2667L21.96 8.26669C22.6 7.89336 23.4 7.89336 24.0133 8.26669L37.3467 16.2667C38.3067 16.8267 38.6 18.0534 38.04 19.0134C37.48 19.9467 36.2533 20.2667 35.2933 19.7067L23 12.32L13.5601 18L18.52 20.9867L20.2533 19.2533C21.0266 18.48 22.3067 18.48 23.0801 19.2533C23.8534 20.0267 23.8534 21.3067 23.0801 22.08L22.0667 23.0934L26.8667 25.9734L28.2533 24.5867C29.0266 23.8133 30.3067 23.8133 31.0801 24.5867C31.8534 25.36 31.8534 26.64 31.0801 27.4133L30.3867 28.1067L37.3467 32.2933C37.96 32.6667 38.3066 33.3067 38.3066 34C38.3066 34.6933 37.96 35.36 37.3734 35.7067Z" fill="white"/>
</svg>
